<svg  viewBox="0 0 10000 600" xmlns="http://www.w3.org/2000/svg" xmlns:xlink="http://www.w3.org/1999/xlink" xml:space="preserve" overflow="hidden">
    <defs>
        <radialGradient cx="597" cy="0" r="845"  gradientUnits="userSpaceOnUse" spreadMethod="pad" id="fill1">
            <stop offset="0" stop-color="#FEBB00"/>
            <stop offset="0.45" stop-color="#DBA100"/>
            <stop offset="0.52" stop-color="#C49100"/>
            <stop offset="0.62" stop-color="#C89400"/>
            <stop offset="1" stop-color="#8E6900"/>
        </radialGradient>
        <radialGradient cx="299" cy="299" r="299" gradientUnits="userSpaceOnUse" spreadMethod="pad" id="fill2">
            <stop offset="0" stop-color="#CC9700"/>
            <stop offset="0.29" stop-color="#FFBF09"/>
            <stop offset="1" stop-color="#C08E00"/>
        </radialGradient>
        <linearGradient x1="225" y1="370" x2="370" y2="225"  gradientUnits="userSpaceOnUse" spreadMethod="reflect" id="fill3">
            <stop offset="0" stop-color="#7F5B00"/>
            <stop offset="0.3" stop-color="#B88600"/>
            <stop offset="0.7" stop-color="#FFC319"/>
            <stop offset="1" stop-color="#FFC319"/>
        </linearGradient>
    </defs>
    <style>
         <!-- 
            The styling enables animation by making variables available (see :root).
            The first two sections (.target * and .target) account for the fact that symbols referred to by the `use` elements
            cannot be accessed from these `use` elements. However the css inherit property does propagate down to the symbols
            from the use elements. The animation uses this property by adding an item 'highlight' to the target that needs to
            be highlighted and by setting the `color` and `alpha` variables. These will be propagated down to the symbol instance.
            See https://stackoverflow.com/questions/78108597/styling-use-instances-of-an-svg-symbol 
         -->
       .target *{
            fill: inherit;
        }
         <!-- The next setting defines the default color for the highlight-target of a daun (key) -->
        .target {
            fill: url(#fill3);
        }
         <!-- The following sections will give control of the highlighting from the javascript application -->
        :root {
          --alpha: 1;
          --color:blue;
        }
        .highlight {
          fill: var(--color);
          opacity: var(--alpha);
        }
    </style>
    <symbol id="chime" width="600" height="600" viewBox="0 0 600 600">
        <circle class="fixed-item" id="border" cx="300" cy="300" r="300" fill="url(#fill1)" fill-rule="evenodd"/>
        <circle class="fixed-item" id="rim" cx="300" cy="300" r="210" fill="url(#fill2)" fill-rule="evenodd"/>
        <circle class="fixed-item" id="knob" cx="300" cy="300" r="75" fill="url(#fill3)" fill-rule="evenodd"/>
    </symbol>
    <symbol id="highlight-knob" width="600" height="600" viewBox="0 0 600 600">
        <circle class="highlight-target" id="knob-hl" cx="300" cy="300" r="75"/>
    </symbol>
    <symbol id="highlight-rim" width="600" height="600" viewBox="0 0 600 600">
        <circle class="highlight-target" id="rim" cx="300" cy="300" r="210"/>
    </symbol>
    <use id="DENG0-chime" class="chime" href="#chime" x="0" y="0" transform="matrix(1.00 0 0.00 1.00 0 0)"/>
    <use id="DENG0" class="target" href="#highlight-target" x="0" y="0" transform="matrix(1.00 0 0.00 1.00 0 0)"/>
    <use id="DUNG0-chime" class="chime" href="#chime" x="0" y="0" transform="matrix(0.95 0 0.00 0.95 623 14)"/>
    <use id="DUNG0" class="target" href="#highlight-target" x="0" y="0" transform="matrix(0.95 0 0.00 0.95 623 14)"/>
    <use id="DANG0-chime" class="chime" href="#chime" x="0" y="0" transform="matrix(0.91 0 0.00 0.91 1220 27)"/>
    <use id="DANG0" class="target" href="#highlight-target" x="0" y="0" transform="matrix(0.91 0 0.00 0.91 1220 27)"/>
    <use id="DING1-chime" class="chime" href="#chime" x="0" y="0" transform="matrix(0.87 0 0.00 0.87 1792 39)"/>
    <use id="DING1" class="target" href="#highlight-target" x="0" y="0" transform="matrix(0.87 0 0.00 0.87 1792 39)"/>
    <use id="DONG1-chime" class="chime" href="#chime" x="0" y="0" transform="matrix(0.83 0 0.00 0.83 2340 51)"/>
    <use id="DONG1" class="target" href="#highlight-target" x="0" y="0" transform="matrix(0.83 0 0.00 0.83 2340 51)"/>
    <use id="DENG1-chime" class="chime" href="#chime" x="0" y="0" transform="matrix(0.79 0 0.00 0.79 2865 62)"/>
    <use id="DENG1" class="target" href="#highlight-target" x="0" y="0" transform="matrix(0.79 0 0.00 0.79 2865 62)"/>
    <use id="DUNG1-chime" class="chime" href="#chime" x="0" y="0" transform="matrix(0.76 0 0.00 0.76 3370 73)"/>
    <use id="DUNG1" class="target" href="#highlight-target" x="0" y="0" transform="matrix(0.76 0 0.00 0.76 3370 73)"/>
    <use id="DANG1-chime" class="chime" href="#chime" x="0" y="0" transform="matrix(0.72 0 0.00 0.72 3853 83)"/>
    <use id="DANG1" class="target" href="#highlight-target" x="0" y="0" transform="matrix(0.72 0 0.00 0.72 3853 83)"/>
    <use id="DING2-chime" class="chime" href="#chime" x="0" y="0" transform="matrix(0.69 0 0.00 0.69 4317 93)"/>
    <use id="DING2" class="target" href="#highlight-target" x="0" y="0" transform="matrix(0.69 0 0.00 0.69 4317 93)"/>
    <use id="DONG2-chime" class="chime" href="#chime" x="0" y="0" transform="matrix(0.66 0 0.00 0.66 4762 102)"/>
    <use id="DONG2" class="target" href="#highlight-target" x="0" y="0" transform="matrix(0.66 0 0.00 0.66 4762 102)"/>
    <use id="DENG2-chime" class="chime" href="#chime" x="0" y="0" transform="matrix(0.63 0 0.00 0.63 5189 111)"/>
    <use id="DENG2" class="target" href="#highlight-target" x="0" y="0" transform="matrix(0.63 0 0.00 0.63 5189 111)"/>
    <use id="DUNG2-chime" class="chime" href="#chime" x="0" y="0" transform="matrix(0.60 0 0.00 0.60 5599 120)"/>
    <use id="DUNG2" class="target" href="#highlight-target" x="0" y="0" transform="matrix(0.60 0 0.00 0.60 5599 120)"/>
</svg>