<svg width="597" height="598" xmlns="http://www.w3.org/2000/svg" xmlns:xlink="http://www.w3.org/1999/xlink" xml:space="preserve" overflow="hidden"><defs><clipPath id="clip0"><rect x="2611" y="669" width="597" height="598"/></clipPath><radialGradient cx="1654232" cy="0" r="2341398" fy="-2.10959e-10" gradientUnits="userSpaceOnUse" spreadMethod="pad" id="fill1" gradientTransform="matrix(0.000360892 0 0 0.000360892 2611 669)"><stop offset="0" stop-color="#FEBB00"/><stop offset="0.45" stop-color="#DBA100"/><stop offset="0.52" stop-color="#C49100"/><stop offset="0.62" stop-color="#C89400"/><stop offset="1" stop-color="#8E6900"/></radialGradient><radialGradient cx="579120" cy="579120" r="818999" gradientUnits="userSpaceOnUse" spreadMethod="pad" id="fill2" gradientTransform="matrix(0.000360892 0 0 0.000360892 2700 759)"><stop offset="0" stop-color="#CC9700"/><stop offset="0.29" stop-color="#FFBF09"/><stop offset="1" stop-color="#C08E00"/></radialGradient><linearGradient x1="2836.5" y1="1040.5" x2="2982.5" y2="895.502" gradientUnits="userSpaceOnUse" spreadMethod="reflect" id="fill3"><stop offset="0" stop-color="#7F5B00"/><stop offset="0.3" stop-color="#B88600"/><stop offset="0.7" stop-color="#FFC319"/><stop offset="1" stop-color="#FFC319"/></linearGradient></defs><g clip-path="url(#clip0)" transform="translate(-2611 -669)"><path d="M2611 968C2611 802.867 2744.64 669 2909.5 669 3074.36 669 3208 802.867 3208 968 3208 1133.13 3074.36 1267 2909.5 1267 2744.64 1267 2611 1133.13 2611 968Z" fill="url(#fill1)" fill-rule="evenodd"/><path d="M2700 968C2700 852.573 2793.57 759 2909 759 3024.43 759 3118 852.573 3118 968 3118 1083.43 3024.43 1177 2909 1177 2793.57 1177 2700 1083.43 2700 968Z" fill="url(#fill2)" fill-rule="evenodd"/><path d="M2837 968C2837 927.683 2869.46 895 2909.5 895 2949.54 895 2982 927.683 2982 968 2982 1008.32 2949.54 1041 2909.5 1041 2869.46 1041 2837 1008.32 2837 968Z" fill="url(#fill3)" fill-rule="evenodd"/></g></svg>